# xmcd
#
# Track frame offsets:
#	150
#	10178
#	22095
#	30725
#	39729
#	50378
#	59674
#	70552
#	82207
#	94843
#	105147
#	115742
#	126770
#	137848
#	148382
#	157214
#	168404
#	179049
#	188859
#	199496
#
# Disc length: 2786 seconds
#
# Revision: 0
# Processed by: cddbd v1.5.2PL0 Copyright (c) Steve Scherf et al.
# Submitted via: audiograbber 1.83.01
#
DISCID=2c0ae014
DTITLE=Twitty, Conway - The Essential Recordings - CD2
DYEAR=2012
DGENRE=Country
TTITLE0=It's Only Make Believe
TTITLE1=Trouble In Mind
TTITLE2=Beachcomber
TTITLE3=She's Mine
TTITLE4=Halfway To Heaven
TTITLE5=I Vibrate (From My Head To My Feet)
TTITLE6=Hey Miss Ruby
TTITLE7=What A Dream
TTITLE8=Rosaleena
TTITLE9=Maybe Baby
TTITLE10=The Story Of My Love
TTITLE11=First Romance
TTITLE12=My One And Only You
TTITLE13=I'll Try
TTITLE14=Pretty Eyed Baby
TTITLE15=Mona Lisa
TTITLE16=Hallelujah I Love Her So
TTITLE17=Goin' Home
TTITLE18=Born To Sing The Blues
TTITLE19=The Next Kiss (Is The Last Goodbye)
EXTD=
EXTT0=
EXTT1=
EXTT2=
EXTT3=
EXTT4=
EXTT5=
EXTT6=
EXTT7=
EXTT8=
EXTT9=
EXTT10=
EXTT11=
EXTT12=
EXTT13=
EXTT14=
EXTT15=
EXTT16=
EXTT17=
EXTT18=
EXTT19=
PLAYORDER=
